<?xml version="1.0" encoding="UTF-8" standalone="no"?>
<!-- Created with Inkscape (http://www.inkscape.org/) -->

<svg
   xmlns:dc="http://purl.org/dc/elements/1.1/"
   xmlns:cc="http://creativecommons.org/ns#"
   xmlns:rdf="http://www.w3.org/1999/02/22-rdf-syntax-ns#"
   xmlns:svg="http://www.w3.org/2000/svg"
   xmlns="http://www.w3.org/2000/svg"
   xmlns:sodipodi="http://sodipodi.sourceforge.net/DTD/sodipodi-0.dtd"
   xmlns:inkscape="http://www.inkscape.org/namespaces/inkscape"
   width="133.55571mm"
   height="158.90791mm"
   viewBox="0 0 473.22889 563.05953"
   id="svg4684"
   version="1.1"
   inkscape:version="0.91 r13725"
   sodipodi:docname="brt.svg">
  <defs
     id="defs4686" />
  <sodipodi:namedview
     id="base"
     pagecolor="#ffffff"
     bordercolor="#666666"
     borderopacity="1.0"
     inkscape:pageopacity="0.0"
     inkscape:pageshadow="2"
     inkscape:zoom="0.49497475"
     inkscape:cx="177.90123"
     inkscape:cy="260.44216"
     inkscape:document-units="px"
     inkscape:current-layer="g5254"
     showgrid="false"
     fit-margin-top="0"
     fit-margin-left="0"
     fit-margin-right="0"
     fit-margin-bottom="0"
     inkscape:window-width="1366"
     inkscape:window-height="705"
     inkscape:window-x="-8"
     inkscape:window-y="-8"
     inkscape:window-maximized="1"
     showguides="false" />
  <metadata
     id="metadata4689">
    <rdf:RDF>
      <cc:Work
         rdf:about="">
        <dc:format>image/svg+xml</dc:format>
        <dc:type
           rdf:resource="http://purl.org/dc/dcmitype/StillImage" />
        <dc:title />
      </cc:Work>
    </rdf:RDF>
  </metadata>
  <g
     inkscape:label="Layer 1"
     inkscape:groupmode="layer"
     id="layer1"
     transform="translate(-157.67128,-178.52913)">
    <g
       id="g5254">
      <path
         id="path479"
         d="m 621.65028,440.17513 -22.069,-170.168 c -6.15,-30.68 -25.783,-42.98 -55.256,-55.256 -29.048,-12.099 -98.662,-26.576 -150.039,-26.972 -51.354,0.396 -120.968,14.873 -150.016,26.972 -29.473,12.276 -49.117,24.577 -55.256,55.256 l -22.093,170.168 0,194.391 c 0,0 0,-12.088 0,4.872 0,16.984 11.52,35.198 38.083,35.198 26.552,0 368.272,0 387.361,0 19.089,0 29.284,-11.78 29.284,-33.613 0,-21.833 0,-40.141 0,-40.141 l 0,-160.707 z"
         stroke-miterlimit="10"
         style="fill:none;stroke:#000000;stroke-width:18.5;stroke-linejoin:round;stroke-miterlimit:10;stroke-opacity:1.0"
         inkscape:connector-curvature="0" />
      <path
         id="path481"
         d="m 240.13649,606.22813 c -11.04846,0 -19.99321,-8.94779 -19.99321,-19.98641 0,-11.06467 8.94475,-20.01359 19.99321,-20.01359 11.06204,0 20.00679,8.94892 20.00679,20.01359 0,11.03862 -8.94588,19.98641 -20.00679,19.98641 z"
         style="fill:#000000;fill-opacity:1.0"
         inkscape:connector-curvature="0" />
      <path
         id="path485"
         d="m 553.12487,606.22813 c -11.0658,0 -20.01359,-8.94779 -20.01359,-19.98641 0,-11.06467 8.94779,-20.01359 20.01359,-20.01359 11.03862,0 19.98641,8.94892 19.98641,20.01359 0.001,11.03862 -8.94779,19.98641 -19.98641,19.98641 z"
         style="fill:#000000;fill-opacity:1.0"
         inkscape:connector-curvature="0" />
      <path
         style="fill:none;fill-rule:evenodd;stroke:#000000;stroke-width:18.5;stroke-linecap:butt;stroke-linejoin:miter;stroke-miterlimit:4;stroke-dasharray:none;stroke-opacity:1.0"
         d="m 206.07112,456.3722 c -9.70021,87.3019 92.88272,116.11798 192.55074,114.13808 96.60628,-1.91908 190.38229,-31.99335 182.21585,-114.13808 0,0 -12.07025,-129.4768 -20.76505,-161.92624 0,0 -113.87446,-0.87006 -165.6186,0 -51.96819,0.87382 -168.47576,0 -168.47576,0 -13.07035,48.77924 -19.90718,161.92624 -19.90718,161.92624 z"
         id="path5265"
         inkscape:connector-curvature="0"
         sodipodi:nodetypes="sssssss" />
      <path
         style="opacity:1;fill:none;fill-opacity:1;fill-rule:evenodd;stroke:#000000;stroke-width:18.5;stroke-linecap:round;stroke-linejoin:round;stroke-miterlimit:4;stroke-dasharray:none;stroke-dashoffset:0;stroke-opacity:1.0"
         d="m 237.47335,241.2165 308.44319,-2.14286 7.14286,32.71357 -322.72891,1.42857 z"
         id="rect5267"
         inkscape:connector-curvature="0"
         sodipodi:nodetypes="ccccc" />
      <path
         style="opacity:1;fill:#ffffff;fill-opacity:1;fill-rule:evenodd;stroke:#000000;stroke-width:18.5;stroke-linecap:round;stroke-linejoin:round;stroke-miterlimit:4;stroke-dasharray:none;stroke-dashoffset:0;stroke-opacity:1"
         id="path5881"
         sodipodi:type="arc"
         sodipodi:cx="219.32913"
         sodipodi:cy="696.83105"
         sodipodi:rx="32.880737"
         sodipodi:ry="28.908564"
         sodipodi:start="0.17453293"
         sodipodi:end="2.9670597"
         d="m 251.71034,701.85097 a 32.880737,28.908564 0 0 1 -32.38121,23.88865 32.880737,28.908564 0 0 1 -32.3812,-23.88865"
         sodipodi:open="true" />
      <path
         style="opacity:1;fill:#ffffff;fill-opacity:1;fill-rule:evenodd;stroke:#000000;stroke-width:18.5;stroke-linecap:round;stroke-linejoin:round;stroke-miterlimit:4;stroke-dasharray:none;stroke-dashoffset:0;stroke-opacity:1"
         id="path5881-8"
         sodipodi:type="arc"
         sodipodi:cx="572.67126"
         sodipodi:cy="696.83105"
         sodipodi:rx="32.880737"
         sodipodi:ry="28.908564"
         sodipodi:start="0.17453293"
         sodipodi:end="2.9670597"
         d="m 605.05247,701.85097 a 32.880737,28.908564 0 0 1 -32.3812,23.88865 32.880737,28.908564 0 0 1 -32.38121,-23.88865"
         sodipodi:open="true" />
    </g>
  </g>
</svg>
