<?xml version="1.0" encoding="UTF-8" standalone="no"?>
<!-- Created with Inkscape (http://www.inkscape.org/) -->

<svg
   xmlns:dc="http://purl.org/dc/elements/1.1/"
   xmlns:cc="http://creativecommons.org/ns#"
   xmlns:rdf="http://www.w3.org/1999/02/22-rdf-syntax-ns#"
   xmlns:svg="http://www.w3.org/2000/svg"
   xmlns="http://www.w3.org/2000/svg"
   xmlns:sodipodi="http://sodipodi.sourceforge.net/DTD/sodipodi-0.dtd"
   xmlns:inkscape="http://www.inkscape.org/namespaces/inkscape"
   width="210mm"
   height="297mm"
   viewBox="0 0 744.09448819 1052.3622047"
   id="svg6518"
   version="1.1"
   inkscape:version="0.91 r13725"
   sodipodi:docname="gas-car-ban.svg">
  <defs
     id="defs6520" />
  <sodipodi:namedview
     id="base"
     pagecolor="#ffffff"
     bordercolor="#666666"
     borderopacity="1.0"
     inkscape:pageopacity="0.0"
     inkscape:pageshadow="2"
     inkscape:zoom="0.35"
     inkscape:cx="915.77806"
     inkscape:cy="386.63817"
     inkscape:document-units="px"
     inkscape:current-layer="Layer_17"
     showgrid="false"
     showguides="false"
     inkscape:window-width="1366"
     inkscape:window-height="705"
     inkscape:window-x="-8"
     inkscape:window-y="-8"
     inkscape:window-maximized="1" />
  <metadata
     id="metadata6523">
    <rdf:RDF>
      <cc:Work
         rdf:about="">
        <dc:format>image/svg+xml</dc:format>
        <dc:type
           rdf:resource="http://purl.org/dc/dcmitype/StillImage" />
        <dc:title></dc:title>
      </cc:Work>
    </rdf:RDF>
  </metadata>
  <g
     inkscape:label="Layer 1"
     inkscape:groupmode="layer"
     id="layer1">
    <g
       transform="translate(-3113.2509,1554.4583)"
       id="Layer_17">
      <path
         id="path7112"
         style="fill:none;fill-rule:evenodd;stroke:#000000;stroke-width:18.5;stroke-linecap:round;stroke-linejoin:round;stroke-miterlimit:4;stroke-dasharray:none;stroke-opacity:1"
         d="m 3338.3713,-1116.2899 c 0,0 13.7907,42.8161 39.2944,57.5069 30.5522,17.5989 75.0514,20.4609 122.0095,20.203 96.1035,-0.5279 204.5148,-3.9477 204.5148,-3.9477 m 57.5788,130.81483 c 0,30.40513 -24.4221,55.05335 -54.5483,55.05331 -30.1261,-2e-5 -54.5482,-24.64822 -54.5482,-55.05331 0,-30.40509 24.4221,-55.0533 54.5482,-55.05332 30.1262,-4e-5 54.5483,24.64819 54.5483,55.05332 z m -341.4317,0 c 0,30.40509 -24.4221,55.05329 -54.5482,55.05331 -30.1262,4e-5 -54.5483,-24.64818 -54.5483,-55.05331 0,-30.40513 24.4221,-55.05336 54.5483,-55.05332 30.1261,2e-5 54.5482,24.64823 54.5482,55.05332 z m -2.0096,21.35458 234.2709,-0.71428 m 106.4436,0.55584 22.8572,-5.71429 c 0,0 23.6785,-36.53117 21.4285,-61.42857 -0.7286,-8.0624 -9.0576,-17.3391 -12.857,-25.7143 -5.1036,-11.2499 -4.9123,-24.10871 -14.2858,-32.85711 -21.5782,-20.1392 -51.8733,-18.1072 -77.388,-33.1889 -37.7158,-22.2939 -108.3263,-82.5254 -108.3263,-82.5254 -19.6042,-1.9549 -98.1511,-5.3836 -147.1428,-2.8571 -31.1446,1.606 -70.6837,1.4525 -92.8572,11.4285 -33.1072,14.8953 -56.7867,46.95 -54.5308,84.0406 2.3875,39.2549 -29.6264,79.18161 -11.1837,107.388 l 24.2858,37.14286 m 179.8268,-234.56056 2.8571,78.5714"
         inkscape:connector-curvature="0"
         sodipodi:nodetypes="csscssssssssssccccsssscssssccc" />
      <path
         style="fill:none;fill-rule:evenodd;stroke:#000000;stroke-width:18.5;stroke-linecap:round;stroke-linejoin:round;stroke-miterlimit:4;stroke-dasharray:none;stroke-opacity:1"
         d="m 3237.7695,-906.13161 c -4.3386,3.71881 -42.5406,-49.63483 -45.8877,-67.62073 -2.4207,-13.0076 23.4243,-21.5056 20,-34.28566 -3.9744,-14.8335 -34.9429,-8.3571 -40,-22.8572 -5.0668,-14.528 18.9291,-27.5749 17.1429,-42.8571 -1.8251,-15.6152 -25.7029,-22.916 -27.1429,-38.5714 -1.1515,-12.519 15.4047,-21.7178 15.7143,-34.2858 0.3157,-12.8179 -13.9751,-22.8962 -14.2857,-35.7142 -0.3538,-14.6032 11.6468,-27.0614 14.2857,-41.4286 2.7541,-14.9947 -6.2472,-32.5421 1.4286,-45.7143 12.9111,-22.1562 40.9179,-33.4627 65.7142,-40 14.7418,-3.8865 30.512,0.2811 45.7143,1.4285 23.9123,1.8048 48.8297,0.5499 71.4286,8.5715 34.4873,12.2415 25.3206,4.782 57.5019,22.2059 0,0 25.4991,33.1255 21.0695,34.937 -20.6546,8.4467 -24.662,38.5097 -42.8571,51.4285 -13.2697,9.4217 -31.1438,9.8936 -45.7143,17.1429 -15.1395,7.5324 -26.6166,22.4326 -42.8571,27.1428 -6.8602,1.9896 -14.2914,0.285 -21.4286,0 -11.9333,-0.4766 -25.8322,-9.5633 -35.7143,-2.8571 -5.3593,3.637 -1.0678,14.0592 -5.7143,18.5714 -10.277,9.9799 -39.3931,-2.7514 -41.4285,11.4286 -1.6711,11.6417 31.0648,6.8587 30,18.5714 -1.0648,11.7128 -27.2801,1.1969 -28.8166,12.8572 -1.4682,11.1422 40.8938,17.9406 42.2952,29.0914 1.6878,13.4302 -37.8606,3.0896 -34.8057,16.2762 2.8374,12.2474 31.2655,12.3957 33.2756,24.8057 1.5623,9.6449 -12.631,15.6106 -13.3474,25.05066 -0.697,9.1846 -6.5654,16.1587 -0.03,27.6331 3.3991,5.9676 13.3773,28.52235 12.4388,35.32565 -0.6,4.3491 34.4467,28.77445 34.4467,28.77445 z"
         id="path7114"
         inkscape:connector-curvature="0"
         sodipodi:nodetypes="cssssssssssssssaaaaasssssssssssc" />
      <path
         id="path7116-4"
         style="fill:none;fill-rule:evenodd;stroke:#000000;stroke-width:18.5;stroke-linecap:round;stroke-linejoin:round;stroke-miterlimit:4;stroke-dasharray:none;stroke-opacity:1"
         d="m 3772.9688,-1358.9568 -579.4358,579.43561 m 0,-579.43561 579.4358,579.43561"
         inkscape:connector-curvature="0" />
    </g>
  </g>
</svg>
