<?xml version="1.0" encoding="UTF-8" standalone="no"?>
<!-- Generator: Adobe Illustrator 14.0.0, SVG Export Plug-In . SVG Version: 6.00 Build 43363)  -->

<svg
   xmlns:dc="http://purl.org/dc/elements/1.1/"
   xmlns:cc="http://creativecommons.org/ns#"
   xmlns:rdf="http://www.w3.org/1999/02/22-rdf-syntax-ns#"
   xmlns:svg="http://www.w3.org/2000/svg"
   xmlns="http://www.w3.org/2000/svg"
   xmlns:sodipodi="http://sodipodi.sourceforge.net/DTD/sodipodi-0.dtd"
   xmlns:inkscape="http://www.inkscape.org/namespaces/inkscape"
   version="1.1"
   id="Layer_1"
   x="0px"
   y="0px"
   width="264.00778"
   height="337.29678"
   viewBox="0 0 264.00778 337.2968"
   enable-background="new 0 0 607.992 613.264"
   xml:space="preserve"
   inkscape:version="0.91 r13725"
   sodipodi:docname="Light_Rail_Sign.svg"><metadata
     id="metadata73"><rdf:RDF><cc:Work
         rdf:about=""><dc:format>image/svg+xml</dc:format><dc:type
           rdf:resource="http://purl.org/dc/dcmitype/StillImage" /><dc:title></dc:title></cc:Work></rdf:RDF></metadata><defs
     id="defs71" /><sodipodi:namedview
     pagecolor="#ffffff"
     bordercolor="#666666"
     borderopacity="1"
     objecttolerance="10"
     gridtolerance="10"
     guidetolerance="10"
     inkscape:pageopacity="0"
     inkscape:pageshadow="2"
     inkscape:window-width="1366"
     inkscape:window-height="705"
     id="namedview69"
     showgrid="false"
     fit-margin-top="0"
     fit-margin-left="0"
     fit-margin-right="0"
     fit-margin-bottom="0"
     inkscape:zoom="0.76965225"
     inkscape:cx="36.485345"
     inkscape:cy="113.04141"
     inkscape:window-x="-8"
     inkscape:window-y="-8"
     inkscape:window-maximized="1"
     inkscape:current-layer="Layer_1" /><line
     x1="612.5119"
     y1="1871.0264"
     x2="612.5119"
     y2="-1383.8367"
     id="line3"
     style="fill:none" /><line
     x1="612.5119"
     y1="1871.0264"
     x2="612.5119"
     y2="-1383.8367"
     id="line5"
     style="fill:none" /><line
     x1="612.5119"
     y1="1871.0264"
     x2="612.5119"
     y2="-1383.8367"
     id="line7"
     style="fill:none" /><line
     x1="612.5119"
     y1="1871.0264"
     x2="612.5119"
     y2="-1383.8367"
     id="line9"
     style="fill:none" /><line
     x1="612.5119"
     y1="1871.0264"
     x2="612.5119"
     y2="-1383.8367"
     id="line11"
     style="fill:none" /><line
     x1="612.5119"
     y1="1871.0264"
     x2="612.5119"
     y2="-1383.8367"
     id="line13"
     style="fill:none" /><line
     x1="612.5119"
     y1="1871.0264"
     x2="612.5119"
     y2="-1383.8367"
     id="line15"
     style="fill:none" /><line
     x1="612.5119"
     y1="1871.0264"
     x2="612.5119"
     y2="-1383.8367"
     id="line17"
     style="fill:none" /><line
     x1="612.5119"
     y1="1871.0264"
     x2="612.5119"
     y2="-1383.8367"
     id="line19"
     style="fill:none" /><line
     x1="612.5119"
     y1="1871.0264"
     x2="612.5119"
     y2="-1383.8367"
     id="line21"
     style="fill:none" /><line
     x1="612.5119"
     y1="1871.0264"
     x2="612.5119"
     y2="-1383.8367"
     id="line29"
     style="fill:none" /><path
     style="fill:#000000;fill-opacity:1.0"
     d="m 55.322236,0 0,10.4961 0.05078,0 0,3.959 c 0,2.151 1.797194,3.957 3.990241,3.957 l 1.84765,0 c 2.203,0 4.00977,-1.806 4.00977,-3.957 l 0,-3.959 47.628903,0 c -0.508,1.146 -0.75195,2.384 -0.75195,3.623 0,4.903 4.07056,9.2275 10.10156,11.5625 l -52.927733,0 c -6.243,0 -12.626973,0.021 -18.667973,1.7363 -6.06,1.715 -11.431422,5.1048 -15.857421,9.5118 -4.771001,4.689 -8.312782,10.5563 -9.175782,17.2363 l -14.578125,113.4492 5.167969,46.2578 -3.419922,4.791 -0.113281,26.2696 48.136725,0 -4.273444,7.1875 -14.921875,0 -7.958984,15.1777 14.607422,0 -6.404297,11.2559 -14.587891,0 -8.822265,16.416 14.699218,0 -7.53125,13.8633 -14.677734,0 -10.892577517582,18.5234 15.611327517582,0 -5.511719,9.8281 14.515625,0.1113 5.96875,-9.9394 204.126957,0 5.5625,9.9394 14.92188,-0.1113 -5.08594,-9.8281 13.89844,0 -9.59375,-18.5234 -14.67774,0 -7.54297,-13.8633 14.44532,0 -8.38282,-16.416 -15.60351,0 -5.5625,-11.2559 14.73828,0 -8.75977,-15.1777 -14.23047,0 -4.63867,-7.1875 50.5293,0 -0.23438,-26.0254 -3.98828,-5.6055 4.89258,-40.6348 -14.88086,-113.9863 c -0.954,-7.491 -2.80139,-14.9803 -7.40039,-21.1523 -2.669,-3.553 -6.05972,-6.7207 -9.88672,-9.0157 -2.984,-1.797 -6.3034,-2.832 -9.8164,-2.832 l -70.33594,0 c 6.039,-2.335 10.09961,-6.6595 10.09961,-11.5625 0,-1.238 -0.27425,-2.477 -0.78125,-3.623 l 48.67383,0 0,3.959 c 0,2.151 1.77723,3.957 3.99023,3.957 l 1.86719,0 c 2.193,0 3.98828,-1.806 3.98828,-3.957 l 0,-3.959 0.11133,0 0,-10.4961 -155.705086,0 z m 77.574224,12.2324 c 3.269,0 5.95898,1.5727 5.95898,3.5117 0,1.959 -2.68998,3.543 -5.95898,3.543 -3.289,0 -5.98828,-1.583 -5.98828,-3.543 0,-1.939 2.69928,-3.5117 5.98828,-3.5117 z m -60.173833,19.6211 119.486333,0 0,27.2461 -119.486333,0 0,-27.2461 z m 50.826173,34.0683 0,80.3965 -97.115235,0 8.505859,-73.2617 88.609376,-7.1348 z m 17.86524,0.3145 91.14648,5.9473 7.64258,74.1347 -98.78906,0 0,-80.082 z m 80.70507,114.7051 c 3.55111,-0.074 7.07285,1.6672 9.1211,4.6582 2,2.995 2.46661,6.6507 0.97461,9.9707 -2.1,4.741 -6.87149,7.0132 -11.89649,6.2012 -3.523,-0.559 -5.78561,-2.8415 -7.34961,-5.8145 -1.299,2.385 -3.03778,4.3529 -5.67578,5.3379 -4.488,1.685 -9.81515,0.1616 -12.53515,-3.8164 -2.508,-3.593 -2.53982,-8.232 -0.13282,-11.877 2.73,-4.101 8.08897,-5.7245 12.66797,-3.9375 2.689,1.055 4.28378,2.8114 5.67578,5.2364 1.289,-2.364 3.05458,-4.2428 5.64258,-5.2578 1.137,-0.4495 2.32411,-0.6764 3.50781,-0.7012 z m -159.570313,0.2578 c 3.5333,-0.07 7.01066,1.5962 9.06641,4.543 2.507,3.563 2.53752,8.2527 0.0606,11.8457 -2.71001,3.98 -8.04991,5.6952 -12.628911,3.9492 -2.587,-1.005 -4.324813,-2.9136 -5.632813,-5.2676 -1.32,2.354 -3.086078,4.2138 -5.705078,5.2188 -4.608,1.767 -9.793703,0.1725 -12.595703,-3.8985 -2.457,-3.541 -2.457703,-8.2817 0.0293,-11.8457 2.771,-3.979 8.008406,-5.5836 12.566406,-3.8476 2.64,0.984 4.385078,2.8933 5.705078,5.2773 1.29,-2.385 3.044813,-4.2936 5.632813,-5.3086 1.139498,-0.4265 2.324188,-0.6426 3.501948,-0.666 z m -27.304686,35.4961 197.873049,0 0,7.084 -197.873049,0 0,-7.084 z m 39.994146,28.3515 115.144533,0 3.85547,7.0743 -123.181653,0 4.18165,-7.0743 z m -12.0586,22.879 138.976563,0 5.94922,10.9121 -151.300782,0 6.374999,-10.9121 z m -15.042968,27.8652 169.023441,0 7.50195,13.9492 -184.017578,0 7.492187,-13.9492 z"
     id="path37"
     inkscape:connector-curvature="0" /><line
     x1="612.5119"
     y1="1871.0264"
     x2="612.5119"
     y2="-1383.8367"
     id="line57"
     style="fill:none" /><line
     x1="612.5119"
     y1="1871.0264"
     x2="612.5119"
     y2="-1383.8367"
     id="line59"
     style="fill:none" /><line
     x1="612.5119"
     y1="1871.0264"
     x2="612.5119"
     y2="-1383.8367"
     id="line61"
     style="fill:none" /><line
     x1="612.5119"
     y1="1871.0264"
     x2="612.5119"
     y2="-1383.8367"
     id="line63"
     style="fill:none" /><line
     x1="612.5119"
     y1="1871.0264"
     x2="612.5119"
     y2="-1383.8367"
     id="line65"
     style="fill:none" /><line
     x1="612.5119"
     y1="1871.0264"
     x2="612.5119"
     y2="-1383.8367"
     id="line67"
     style="fill:none" /></svg>